<?xml version="1.0"?>
<svg xmlns="http://www.w3.org/2000/svg" xmlns:xlink="http://www.w3.org/1999/xlink" version="1.1" id="Capa_1" x="0px" y="0px" width="512px" height="512px" viewBox="0 0 187.521 187.521" style="enable-background:new 0 0 187.521 187.521;" xml:space="preserve"><g><g>
	<path d="M95.012,0.107C55.163,2.131,16.456,31.413,6.007,70.142c-5.163,19.136-2.101,40.247,5.185,58.39   c4.232,10.538,10.997,24.067,20.895,31.934c2.396,2.681,5.158,5.027,8.167,7.107c2.075,1.435,4.841,3.192,7.765,4.591   c21.582,18.338,53.868,19.343,79.649,7.836c19.51-8.707,35.186-24.013,45.03-42.58c0.394-0.445,0.779-0.897,1.177-1.339   c0.811-0.902,1.021-1.881,0.853-2.756c3.576-7.569,6.236-15.602,7.787-23.921C192.62,55.19,152.855-2.831,95.012,0.107z    M59.326,173.252c1.138,0.728,2.307,1.409,3.49,2.067c0.778,0.461,1.562,0.9,2.355,1.321c-2.029-0.907-4.026-1.918-5.966-3.085   C59.26,173.459,59.293,173.354,59.326,173.252z M134.388,136.625c-8.81,9.826-20.44,10.572-31.757,5.111   c-0.914-0.441-1.864-0.237-2.544,0.279c-0.023,0.014-0.046,0.019-0.069,0.031c-15.118,8.748-33.461-2.134-44.619-12.562   c-12.882-12.039-20.66-28.822-13.28-45.834c0.418-0.965,0.066-1.989-0.599-2.562c0.001-0.029,0.015-0.054,0.015-0.084   c-0.275-13.169-7.204-24.514,3.93-35.55c8.452-8.378,23.843-9.787,33.94-4.064c0.114,0.064,0.225,0.102,0.338,0.15   c0.599,0.753,1.541,1.178,2.635,0.767c15.887-5.964,32.689-0.024,45.164,10.604c14.943,12.733,17.006,31.349,13.942,49.575   c-0.108,0.647-0.019,1.227,0.19,1.732c-0.387,0.602-0.512,1.395-0.19,2.339C145.206,117.485,141.96,128.178,134.388,136.625z    M146.109,129.027c0.343-0.808,0.644-1.627,0.934-2.449c0.049,0.385,0.106,0.77,0.158,1.155   C146.841,128.166,146.469,128.591,146.109,129.027z M176.263,108.763c0.592-3.343,1.031-6.726,1.345-10.137   c0.003,0.001,0.007,0,0.01,0.001C177.344,102.025,176.899,105.41,176.263,108.763z" data-original="#000000" class="active-path" data-old_color="#000000" fill="#FFFFFF"/>
	<path d="M87.994,82.811c-5.566-1.968-9.293-4.965-9.513-11.144c-0.285-8.015,5.994-6.99,11.366-4.711   c7.339,3.113,13.259,8.455,20.159,12.266c0.956,0.528,1.881,0.433,2.607,0.001c0.692,0.505,1.611,0.605,2.546-0.101   c4.013-3.03,3.926-6.376,2.081-9.415c-3.954-16.702-31.344-23.19-44.697-13.472c-0.193,0.072-0.394,0.127-0.585,0.205   c-11.328,4.562-12.119,21.364-4.815,29.831c4.908,5.689,13.605,8.24,20.383,10.76c4.332,1.609,16.28,4.163,18.946,9.563   c-0.594,2.999-0.417,6.081-3.32,8.188c-2.857,2.072-7.066,1.54-10.269,0.861c-8-1.693-15.208-7.312-19.598-14.068   c-0.568-0.875-1.508-0.998-2.234-0.654c-1.794-0.751-3.789-0.244-5.175,2.535c-3.508,7.036,2.318,15.444,7.813,19.287   c11.798,8.25,40.265,5.345,46.158-9.396C128.391,91.973,101.587,87.618,87.994,82.811z M67.844,75.27   c1.088,3.349,3.262,6.513,5.949,8.979c0.186,0.244,0.389,0.476,0.584,0.713C71.09,82.554,68.662,79.477,67.844,75.27z" data-original="#000000" class="active-path" data-old_color="#000000" fill="#FFFFFF"/>
</g><script xmlns="" class="active-path"/></g> </svg>
